<svg xmlns="http://www.w3.org/2000/svg" width="33" height="33" fill="none" viewBox="0 0 33 33"><path fill="#699635" d="M16.067 17.072a1.493 1.493 0 1 0 0-2.986 1.493 1.493 0 0 0 0 2.986"></path><path fill="#7BB246" d="M1.032 20.377c-3.146 5.225 2.292 6.825 4.692 5.065-1.813 2.666-.054 7.678 5.171 4.639 5.811-3.412 4.212-13.062 4.532-14.182-.96.16-11.036-1.12-14.395 4.478"></path><path fill="#699635" d="M5.724 25.442c.746-.853 1.546-1.652 2.292-2.505l2.4-2.4c.799-.8 1.599-1.599 2.452-2.345l1.226-1.173 1.28-1.12-1.12 1.28-1.173 1.226-2.4 2.399c-.799.8-1.599 1.6-2.452 2.346-.8.8-1.6 1.546-2.505 2.292"></path><path fill="#7BB246" d="M31.101 10.78c3.146-5.224-2.292-6.823-4.691-5.064 1.812-2.666.053-7.677-5.172-4.638-5.811 3.412-4.212 13.062-4.532 14.181.96-.16 11.036 1.12 14.395-4.478"></path><path fill="#699635" d="M26.41 5.716c-.747.853-1.547 1.653-2.293 2.506l-2.4 2.399c-.799.8-1.598 1.6-2.452 2.346L18.04 14.14l-1.28 1.12 1.12-1.28 1.173-1.226 2.4-2.4c.799-.8 1.599-1.599 2.452-2.345.8-.8 1.6-1.547 2.506-2.293"></path><path fill="#83BF4F" d="M10.895 1.078c-5.331-3.093-6.93 2.239-5.171 4.638-2.666-1.76-7.784-.053-4.692 5.065 3.465 5.704 13.275 4.158 14.395 4.425-.16-.906 1.173-10.823-4.532-14.128"></path><path fill="#699635" d="M5.724 5.716c.853.746 1.706 1.493 2.505 2.24.853.746 1.653 1.545 2.453 2.345l2.399 2.4 1.173 1.226 1.12 1.279-1.28-1.12-1.226-1.12c-.853-.746-1.653-1.545-2.453-2.345l-2.399-2.4C7.27 7.37 6.47 6.57 5.724 5.717"></path><path fill="#83BF4F" d="M21.238 30.08c5.332 3.093 6.931-2.238 5.172-4.638 2.719 1.76 7.784.054 4.691-5.065-3.465-5.704-13.275-4.158-14.395-4.425.16.907-1.172 10.823 4.532 14.129"></path><path fill="#699635" d="M26.41 25.442a106 106 0 0 1-2.506-2.239c-.853-.746-1.653-1.546-2.453-2.346l-2.399-2.399-1.173-1.28-1.12-1.279 1.28 1.12 1.226 1.173c.854.746 1.653 1.546 2.453 2.345l2.399 2.4c.746.853 1.546 1.652 2.293 2.505M16.067 18.671l1.332 12.103c.054.693-.48 1.28-1.173 1.332-.746.054-1.386-.426-1.492-1.12v-.266z"></path></svg>