<svg xmlns="http://www.w3.org/2000/svg" width="32" height="30" fill="none" viewBox="0 0 32 30"><path fill="url(#paint0_linear_7392_1981)" fill-rule="evenodd" d="M31.147 14.218c0 7.491-6.94 13.564-15.5 13.564a17.6 17.6 0 0 1-4.548-.593c-1.131.574-3.73 1.675-8.1 2.392-.388.062-.682-.341-.53-.702.687-1.62 1.307-3.779 1.493-5.747C1.588 20.748.147 17.628.147 14.218c0-7.491 6.94-13.564 15.5-13.564s15.5 6.073 15.5 13.564M8.865 8.405a.969.969 0 0 0 0 1.938h13.563a.969.969 0 0 0 0-1.938zm0 4.844a.969.969 0 1 0 0 1.938h13.563a.969.969 0 1 0 0-1.938zm0 4.845a.969.969 0 0 0 0 1.937h7.75a.969.969 0 1 0 0-1.937z" clip-rule="evenodd"></path><defs><linearGradient id="paint0_linear_7392_1981" x1="35.263" x2="0.147" y1="0.654" y2="31.102" gradientUnits="userSpaceOnUse"><stop stop-color="#35B6D2"></stop><stop offset="1" stop-color="#3590D2"></stop></linearGradient></defs></svg>