<svg xmlns="http://www.w3.org/2000/svg" width="32" height="32" fill="none" viewBox="0 0 32 32"><path fill="url(#paint3_linear)" d="M16 32q-4.344 0-8.031-2.14A15.8 15.8 0 0 1 2.14 24.03Q0 20.344 0 16t2.14-8.031A15.8 15.8 0 0 1 7.97 2.14Q11.656 0 16 0q3.5 0 4.75.86Q22 1.718 22 4q0 1-.469 1.906T20.5 7.375a8.3 8.3 0 0 0-1.031 1.266Q18.999 9.344 19 10q0 3 3 3 .656 0 1.36-.469.702-.468 1.265-1.031t1.469-1.031A4.1 4.1 0 0 1 28 10q2.25 0 3.125 1.281T32 16q0 3.25-1.266 6.219-1.265 2.968-3.406 5.11-2.14 2.14-5.11 3.405A15.7 15.7 0 0 1 16 32m-7-6q1.25 0 2.125-.875A2.9 2.9 0 0 0 12 23q0-1.25-.875-2.125A2.9 2.9 0 0 0 9 20q-1.25 0-2.125.875A2.9 2.9 0 0 0 6 23q0 1.25.875 2.125A2.9 2.9 0 0 0 9 26M7 10q-1.25 0-2.125.875A2.9 2.9 0 0 0 4 13q0 1.25.875 2.125A2.9 2.9 0 0 0 7 16q1.25 0 2.125-.875A2.9 2.9 0 0 0 10 13q0-1.25-.875-2.125A2.9 2.9 0 0 0 7 10m6-6q-1.25 0-2.125.875A2.9 2.9 0 0 0 10 7q0 1.25.875 2.125A2.9 2.9 0 0 0 13 10q1.25 0 2.125-.875A2.9 2.9 0 0 0 16 7q0-1.25-.875-2.125A2.9 2.9 0 0 0 13 4m6 18q-1.25 0-2.125.875A2.9 2.9 0 0 0 16 25q0 1.25.875 2.125A2.9 2.9 0 0 0 19 28q1.25 0 2.125-.875A2.9 2.9 0 0 0 22 25q0-1.25-.875-2.125A2.9 2.9 0 0 0 19 22m6-6q-1.25 0-2.125.875A2.9 2.9 0 0 0 22 19q0 1.25.875 2.125A2.9 2.9 0 0 0 25 22q1.25 0 2.125-.875A2.9 2.9 0 0 0 28 19q0-1.25-.875-2.125A2.9 2.9 0 0 0 25 16"></path><defs><linearGradient id="paint3_linear" x1="16" x2="16" y1="0" y2="32" gradientUnits="userSpaceOnUse"><stop style="stop-color: rgb(155, 43, 223);"></stop><stop offset="1" style="stop-color: rgb(238, 39, 98);"></stop></linearGradient></defs></svg>