<svg xmlns="http://www.w3.org/2000/svg" width="33" height="32" fill="none" viewBox="0 0 33 32"><path fill="#2F60DD" fill-rule="evenodd" d="M.3.249h20.267v11.2H32.3v20.266H12.033v-11.2H.3zm5.473 14.353L9.12 5.049h2.627l2.242 6.4h4.444V2.382h-16v16h9.6v-5.333H8.578l-.545 1.553zm3.552-3.687h2.216l-1.108-3.162zm20.842 18.667v-16h-16v16zm-9.099-5.427a9 9 0 0 1-.673-.941c-.614-1-1.067-2.09-1.34-3.232H17.9v-2.133h3.733v-1.6h2.134v1.6H27.5v2.133h-1.156a11 11 0 0 1-1.34 3.232 9 9 0 0 1-.672.94q1.162.628 2.635.628v2.133c-1.61 0-3.048-.427-4.267-1.255-1.22.828-2.657 1.255-4.267 1.255v-2.133q1.475 0 2.635-.627m2.127-2.072c.404-.656.72-1.363.94-2.101h-2.87c.226.759.553 1.483.973 2.155q.213.334.462.643.27-.333.495-.697" clip-rule="evenodd"></path></svg>