<svg xmlns="http://www.w3.org/2000/svg" width="34" height="33" fill="none" viewBox="0 0 34 33"><path fill="#D2820B" d="M17.472 2.484a1.02 1.02 0 0 0-.758 0L4.544 7.35l4.903 1.96 12.548-5.019zm7.267 2.908L12.191 10.41l4.902 1.96L29.641 7.35zm6.627 3.466-13.253 5.301v16.154l13.253-5.302V8.858M16.073 30.315V14.157L2.82 8.857v16.156zM15.957.59a3.06 3.06 0 0 1 2.272 0l14.536 5.815a1.02 1.02 0 0 1 .64.946v17.662a2.04 2.04 0 0 1-1.282 1.893l-14.65 5.86a1.02 1.02 0 0 1-.76 0l-14.648-5.86a2.04 2.04 0 0 1-1.284-1.893V7.351a1.02 1.02 0 0 1 .64-.946z"></path></svg>