<svg xmlns="http://www.w3.org/2000/svg" width="30" height="33" fill="none" viewBox="0 0 30 33"><path fill="url(#paint0_linear_7392_1912)" d="M6.495 19.378c-.376.998-.693 1.92-.977 2.853 1.547-1.115 3.385-1.823 5.507-2.087 4.049-.502 7.646-3.156 9.467-6.492l-2.346-2.328 2.277-2.264 1.61-1.602c.693-.688 1.475-1.958 2.301-3.789-9.01 1.387-14.529 6.867-17.841 15.709zm16.207-8.056 1.611 1.598c-1.61 4.8-6.444 9.6-12.888 10.4q-6.45.802-8.06 8.8H.148c1.61-9.6 4.833-32 29-32q-2.416 7.194-4.829 9.596z"></path><path fill="url(#paint1_linear_7392_1912)" fill-rule="evenodd" d="M16.224 16.06c-4.195 2.33-8.999 4.49-10.678 6.168l.176-.834c1.675-1.676 3.575-6.561 8.347-9.212l1.768-.157a1 1 0 0 1 1.06 1.23z" clip-rule="evenodd"></path><defs><linearGradient id="paint0_linear_7392_1912" x1="14.647" x2="14.647" y1="0.12" y2="32.12" gradientUnits="userSpaceOnUse"><stop stop-color="#383838"></stop><stop offset="1" stop-color="#383838" stop-opacity="0"></stop></linearGradient><linearGradient id="paint1_linear_7392_1912" x1="10.147" x2="10.147" y1="14.12" y2="22.12" gradientUnits="userSpaceOnUse"><stop stop-color="#636363"></stop><stop offset="1" stop-color="#383838" stop-opacity="0"></stop></linearGradient></defs></svg>