<svg xmlns="http://www.w3.org/2000/svg" width="31" height="40" fill="none" viewBox="0 0 31 40"><path fill="#22408B" d="M30.218 21.636.218.419v39.402h30L12.217 21.636z"></path><path fill="#DD2F45" d="M25.98 20.12 1.733 3.747v34.559H25.98L8.665 20.12z"></path><path fill="white" d="m9.751 29.275.889-1.236-1.516.148.152-1.515-1.239.888-.627-1.388-.627 1.388-1.238-.888.15 1.515-1.516-.148.888 1.236-1.388.628 1.388.627-.888 1.237 1.516-.149-.15 1.516 1.238-.888.627 1.388.627-1.388 1.239.888-.152-1.516 1.515.149-.888-1.237 1.389-.627zM7.41 18.445l.001.002.002-.003.027.003c2.225 0 4.03-1.712 4.219-3.89a4.85 4.85 0 0 1-2.417 2.185l-.265-.37.925-.418-.925-.418.592-.826-1.012.1.101-1.012-.827.592-.418-.927-.419.928-.827-.593.101 1.012-1.012-.1.593.826-.926.418.926.419-.253.353a4.85 4.85 0 0 1-2.374-2.169 4.235 4.235 0 0 0 4.188 3.887"></path></svg>