<svg xmlns="http://www.w3.org/2000/svg" width="35" height="35" fill="none" viewBox="0 0 35 35"><path fill="#383838" fill-rule="evenodd" d="M12.825 3.973c-5.357 1.965-9.178 7.11-9.178 13.147 0 7.732 6.268 14 14 14s14-6.268 14-14-6.268-14-14-14a1.944 1.944 0 1 0 0 3.89 1.5 1.5 0 0 1 0 3 4.945 4.945 0 0 1-4.822-6.037M17.652.12h-.005c-9.39 0-17 7.612-17 17 0 9.39 7.61 17 17 17 9.389 0 17-7.61 17-17 0-9.387-7.609-16.997-16.995-17M10.98 13.676a1.5 1.5 0 0 1 1.5-1.5h.017a1.5 1.5 0 1 1 0 3h-.017a1.5 1.5 0 0 1-1.5-1.5m11.834-1.5a1.5 1.5 0 0 0 0 3h.016a1.5 1.5 0 1 0 0-3zm-10.523 9.04a1.5 1.5 0 0 1 2.121.021 4.526 4.526 0 0 0 6.469 0 1.5 1.5 0 0 1 2.142 2.1 7.53 7.53 0 0 1-10.754 0 1.5 1.5 0 0 1 .022-2.121" clip-rule="evenodd"></path><path fill="url(#paint0_linear_8048_2136)" fill-rule="evenodd" d="M12.825 3.973c-5.357 1.965-9.178 7.11-9.178 13.147 0 7.732 6.268 14 14 14s14-6.268 14-14-6.268-14-14-14a1.944 1.944 0 1 0 0 3.89 1.5 1.5 0 0 1 0 3 4.945 4.945 0 0 1-4.822-6.037M17.652.12h-.005c-9.39 0-17 7.612-17 17 0 9.39 7.61 17 17 17 9.389 0 17-7.61 17-17 0-9.387-7.609-16.997-16.995-17M10.98 13.676a1.5 1.5 0 0 1 1.5-1.5h.017a1.5 1.5 0 1 1 0 3h-.017a1.5 1.5 0 0 1-1.5-1.5m11.834-1.5a1.5 1.5 0 0 0 0 3h.016a1.5 1.5 0 1 0 0-3zm-10.523 9.04a1.5 1.5 0 0 1 2.121.021 4.526 4.526 0 0 0 6.469 0 1.5 1.5 0 0 1 2.142 2.1 7.53 7.53 0 0 1-10.754 0 1.5 1.5 0 0 1 .022-2.121" clip-rule="evenodd"></path><defs><linearGradient id="paint0_linear_8048_2136" x1="15.925" x2="15.925" y1="1.62" y2="8.509" gradientUnits="userSpaceOnUse"><stop stop-color="#FF3194"></stop><stop offset="1" stop-color="#D53582"></stop></linearGradient></defs></svg>