<svg xmlns="http://www.w3.org/2000/svg" width="29" height="26" fill="none" viewBox="0 0 29 26"><path fill="#383838" d="M11.333 18.417V17H1.431v8.5h25.486V17H17v1.417zm17-12.75h-8.5V2.833L17 0h-5.667L8.5 2.833v2.834H0v9.916h11.333V12.75H17v2.833h11.333zM17 5.667h-5.667V2.833H17z"></path><path fill="url(#paint7_linear)" d="M11.333 18.417V17H1.431v8.5h25.486V17H17v1.417zm17-12.75h-8.5V2.833L17 0h-5.667L8.5 2.833v2.834H0v9.916h11.333V12.75H17v2.833h11.333zM17 5.667h-5.667V2.833H17z"></path><defs><linearGradient id="paint7_linear" x1="14.167" x2="14.167" y1="0" y2="25.5" gradientUnits="userSpaceOnUse"><stop style="stop-color: rgb(215, 120, 9);"></stop><stop offset="1" style="stop-color: rgb(167, 65, 8);"></stop></linearGradient></defs></svg>