<svg xmlns="http://www.w3.org/2000/svg" width="31" height="31" fill="none" viewBox="0 0 31 31"><path fill="url(#paint1_linear)" d="M9.467 27.113a10.8 10.8 0 0 1-4.432-3.088 10.85 10.85 0 0 1-2.388-4.86L.074 6.994A3.09 3.09 0 0 1 2.446 3.3L17.59.074l.046-.015a3.1 3.1 0 0 1 3.627 2.4l.543 2.602 6.743 1.45h.046c1.628.374 2.682 2.025 2.34 3.677l-2.572 12.187a10.9 10.9 0 0 1-1.673 3.907 10.9 10.9 0 0 1-3.033 2.965 10.8 10.8 0 0 1-8.16 1.513 10.67 10.67 0 0 1-6.03-3.647m18.43-17.564L12.755 6.308 10.18 18.495v.046c-.883 4.177 1.799 8.291 5.968 9.18s8.293-1.793 9.177-5.985zm-6.2 12.967a4.6 4.6 0 0 1-2.109 1.88 4.57 4.57 0 0 1-2.804.286 4.6 4.6 0 0 1-2.439-1.406 4.65 4.65 0 0 1-1.173-2.568zM10.026 4.858 3.097 6.355l2.573 12.17.015.048a7.6 7.6 0 0 0 1.333 2.96c-.155-1.2-.124-2.446.14-3.693l.666-3.117c-.697-.124-1.302-.514-1.627-1.075.093-.95.868-1.792 1.937-2.041h.388L9.73 5.669c.062-.296.155-.561.294-.81M20.194 15.86c.496-.826 1.55-1.262 2.62-1.029 1.07.219 1.844 1.045 1.984 2.01-.512.811-1.55 1.248-2.635.998-1.07-.202-1.845-1.028-1.97-1.979m-7.564-1.62c.495-.827 1.534-1.263 2.604-1.03 1.038.219 1.86 1.06 1.984 2.011-.512.81-1.55 1.262-2.62 1.06-1.07-.265-1.844-1.091-1.969-2.042m2.82-10.536 3.039.655-.248-1.247z"></path><defs><linearGradient id="paint1_linear" x1="15.5" x2="15.5" y1="0" y2="31" gradientUnits="userSpaceOnUse"><stop style="stop-color: rgb(255, 216, 117);"></stop><stop offset="1" style="stop-color: rgb(245, 83, 83);"></stop></linearGradient></defs></svg>